<?xml version="1.0" encoding="UTF-8"?>
<svg width="700pt" height="700pt" version="1.1" viewBox="0 0 700 700" xmlns="http://www.w3.org/2000/svg" xmlns:xlink="http://www.w3.org/1999/xlink">
 <defs>
 </defs>
 <g>
  <path d="m563.07 260.41c-5.7617-2.3086-12.258 0.49219-14.566 6.2266-2.3008 5.7383 0.48828 12.258 6.2266 14.566 23.789 9.5352 21.043 17.91 19.57 22.398-3.2148 9.7812-32.387 21.504-70.688 29.043l48.574-84.129c9.5039-16.457 3.8594-37.496-12.59-47l-220.48-127.3c-16.457-9.5039-37.492-3.8633-47.012 12.602l-113.46 196.53c-24.773-7.8555-36.785-16.727-36.836-22.785-0.09375-9.7773 14.223-23.477 54.695-32.609 6.0312-1.3672 9.8242-7.3594 8.457-13.395-1.3594-6.0312-7.3516-9.8047-13.391-8.457-63.105 14.242-72.297 40.363-72.16 54.668 0.35156 40.285 86.781 54.219 128.63 58.598-0.003906 0.24609 0.027344 0.48828 0.003907 0.73828-0.074219 0.59766-0.18359 1.1719-0.37109 1.7188-1.3203 5.5312-6.625 9.3984-12.441 8.8203-29.809-2.8789-54.523-7.582-74.121-13.938-3.3555 14.371 2.8555 29.824 16.289 37.594l213.94 123.49h-70.129c-6.9609 0-12.602 5.6445-12.602 12.602s5.6406 12.602 12.602 12.602h177.95c6.957 0 12.602-5.6445 12.602-12.602s-5.6445-12.602-12.602-12.602h-61.59c2.832-2.4531 5.332-5.375 7.3125-8.8047l55.094-95.426c-12.188 1.0938-23.961 1.6523-34.664 1.7266-5.7852 0.011719-10.664-3.9375-11.988-9.2969-0.32031-0.95313-0.44922-1.9727-0.41016-3.0195 0-0.09375 0.035157-0.16797 0.035157-0.26172 49.301-1.1367 150.45-15.031 162.64-52.125 4.9023-14.973 3.2422-35.832-32.527-50.176zm-251.98 122.26-35.656-20.586 20.586-35.668 35.668 20.59zm24.391-49.871-32.352-18.68c2.5977-4.6992 4.1953-7.5664 4.7812-8.5742 6.0547-10.488 12.77-18.117 20.156-22.875 7.3711-4.7773 18.711-8.3789 33.992-10.832 15.289-2.4531 24.703-4.4062 28.246-5.8516 5.5273-2.3398 9.7227-6.0039 12.609-11 4.0078-6.9336 4.6719-14.477 1.9805-22.625-2.6836-8.1523-8.7188-14.934-18.105-20.352-9.0508-5.2305-18.105-7.0156-27.184-5.375-9.0703 1.6445-17.809 7.1016-26.191 16.348l-30.398-22.965c9.6758-14.605 23.535-23.734 41.625-27.406 18.07-3.6562 36.844 0.125 56.297 11.355 20.48 11.82 33.68 26.578 39.594 44.262 5.9141 17.684 4.7656 33.633-3.4258 47.84-4.5469 7.8672-11.07 14.023-19.562 18.492-8.4961 4.457-23.516 8.5352-45.039 12.234-11.148 1.9102-18.73 4.2461-22.746 7-4.0234 2.7539-8.7812 9.0938-14.277 19.004zm-60.699 157.59c0 6.957-5.6406 12.602-12.602 12.602h-59.512c-6.9609 0-12.602-5.6445-12.602-12.602s5.6406-12.602 12.602-12.602h59.512c6.9609 0.003907 12.602 5.6484 12.602 12.602z"/>
 </g>
</svg>
